<svg xmlns="http://www.w3.org/2000/svg" viewBox="0 0 1200 630">
  <defs>
    <linearGradient id="bg" x1="0%" y1="0%" x2="100%" y2="100%">
      <stop offset="0%" style="stop-color:#0f0f18"/>
      <stop offset="100%" style="stop-color:#0a0a0f"/>
    </linearGradient>
    <linearGradient id="cyan" x1="0%" y1="0%" x2="100%" y2="100%">
      <stop offset="0%" style="stop-color:#00f0ff"/>
      <stop offset="100%" style="stop-color:#00c8d7"/>
    </linearGradient>
    <linearGradient id="magenta" x1="0%" y1="0%" x2="100%" y2="100%">
      <stop offset="0%" style="stop-color:#ff00aa"/>
      <stop offset="100%" style="stop-color:#cc0088"/>
    </linearGradient>
    <linearGradient id="green" x1="0%" y1="0%" x2="100%" y2="100%">
      <stop offset="0%" style="stop-color:#00ff6a"/>
      <stop offset="100%" style="stop-color:#00cc55"/>
    </linearGradient>
    <filter id="glow" x="-100%" y="-100%" width="300%" height="300%">
      <feGaussianBlur stdDeviation="6" result="blur"/>
      <feMerge>
        <feMergeNode in="blur"/>
        <feMergeNode in="SourceGraphic"/>
      </feMerge>
    </filter>
    <filter id="textGlow" x="-50%" y="-50%" width="200%" height="200%">
      <feGaussianBlur stdDeviation="4" result="blur"/>
      <feMerge>
        <feMergeNode in="blur"/>
        <feMergeNode in="SourceGraphic"/>
      </feMerge>
    </filter>
  </defs>

  <!-- Background -->
  <rect width="1200" height="630" fill="url(#bg)"/>

  <!-- Subtle grid pattern -->
  <g opacity="0.1">
    <pattern id="grid" width="60" height="60" patternUnits="userSpaceOnUse">
      <rect width="60" height="60" fill="none" stroke="#00f0ff" stroke-width="0.5"/>
    </pattern>
    <rect width="1200" height="630" fill="url(#grid)"/>
  </g>

  <!-- LED Matrix Display - 7x4 grid on the left, sized to fill container -->
  <!-- Container: 460x350, padding 20px each side = 420x310 inner area -->
  <!-- 7 cols: 420 / 7 = 60px per cell slot, using 52px cells with 8px gaps -->
  <!-- 4 rows: 310 / 4 = 77.5px per cell slot, using 68px cells with 9.5px gaps -->
  <g transform="translate(60, 140)">
    <rect x="0" y="0" width="460" height="350" rx="16" fill="#14141f" stroke="#2a2a3e" stroke-width="2"/>

    <!-- LED cells - 52px cells, 60px spacing horizontal, 77px spacing vertical -->
    <!-- Row 1: N M pattern (cols 0-3 = N, col 4 = gap, cols 5-6 = M) -->
    <rect x="20" y="20" width="52" height="68" rx="10" fill="url(#cyan)" filter="url(#glow)"/>
    <rect x="80" y="20" width="52" height="68" rx="10" fill="#1a1a24"/>
    <rect x="140" y="20" width="52" height="68" rx="10" fill="#1a1a24"/>
    <rect x="200" y="20" width="52" height="68" rx="10" fill="url(#cyan)" filter="url(#glow)"/>
    <rect x="260" y="20" width="52" height="68" rx="10" fill="#1a1a24"/>
    <rect x="320" y="20" width="52" height="68" rx="10" fill="url(#magenta)" filter="url(#glow)"/>
    <rect x="380" y="20" width="52" height="68" rx="10" fill="url(#magenta)" filter="url(#glow)"/>

    <!-- Row 2 -->
    <rect x="20" y="97" width="52" height="68" rx="10" fill="url(#cyan)" filter="url(#glow)"/>
    <rect x="80" y="97" width="52" height="68" rx="10" fill="url(#cyan)" filter="url(#glow)"/>
    <rect x="140" y="97" width="52" height="68" rx="10" fill="#1a1a24"/>
    <rect x="200" y="97" width="52" height="68" rx="10" fill="url(#cyan)" filter="url(#glow)"/>
    <rect x="260" y="97" width="52" height="68" rx="10" fill="#1a1a24"/>
    <rect x="320" y="97" width="52" height="68" rx="10" fill="url(#magenta)" filter="url(#glow)"/>
    <rect x="380" y="97" width="52" height="68" rx="10" fill="#1a1a24"/>

    <!-- Row 3 -->
    <rect x="20" y="174" width="52" height="68" rx="10" fill="url(#cyan)" filter="url(#glow)"/>
    <rect x="80" y="174" width="52" height="68" rx="10" fill="#1a1a24"/>
    <rect x="140" y="174" width="52" height="68" rx="10" fill="url(#cyan)" filter="url(#glow)"/>
    <rect x="200" y="174" width="52" height="68" rx="10" fill="url(#cyan)" filter="url(#glow)"/>
    <rect x="260" y="174" width="52" height="68" rx="10" fill="#1a1a24"/>
    <rect x="320" y="174" width="52" height="68" rx="10" fill="url(#magenta)" filter="url(#glow)"/>
    <rect x="380" y="174" width="52" height="68" rx="10" fill="url(#magenta)" filter="url(#glow)"/>

    <!-- Row 4 -->
    <rect x="20" y="251" width="52" height="68" rx="10" fill="url(#cyan)" filter="url(#glow)"/>
    <rect x="80" y="251" width="52" height="68" rx="10" fill="#1a1a24"/>
    <rect x="140" y="251" width="52" height="68" rx="10" fill="#1a1a24"/>
    <rect x="200" y="251" width="52" height="68" rx="10" fill="url(#cyan)" filter="url(#glow)"/>
    <rect x="260" y="251" width="52" height="68" rx="10" fill="#1a1a24"/>
    <rect x="320" y="251" width="52" height="68" rx="10" fill="url(#magenta)" filter="url(#glow)"/>
    <rect x="380" y="251" width="52" height="68" rx="10" fill="#1a1a24"/>

    <!-- Highlights on lit LEDs -->
    <rect x="26" y="26" width="20" height="8" rx="3" fill="rgba(255,255,255,0.25)"/>
    <rect x="206" y="26" width="20" height="8" rx="3" fill="rgba(255,255,255,0.25)"/>
    <rect x="326" y="26" width="20" height="8" rx="3" fill="rgba(255,255,255,0.25)"/>
    <rect x="386" y="26" width="20" height="8" rx="3" fill="rgba(255,255,255,0.25)"/>

    <rect x="26" y="103" width="20" height="8" rx="3" fill="rgba(255,255,255,0.25)"/>
    <rect x="86" y="103" width="20" height="8" rx="3" fill="rgba(255,255,255,0.25)"/>
    <rect x="206" y="103" width="20" height="8" rx="3" fill="rgba(255,255,255,0.25)"/>
    <rect x="326" y="103" width="20" height="8" rx="3" fill="rgba(255,255,255,0.25)"/>

    <rect x="26" y="180" width="20" height="8" rx="3" fill="rgba(255,255,255,0.25)"/>
    <rect x="146" y="180" width="20" height="8" rx="3" fill="rgba(255,255,255,0.25)"/>
    <rect x="206" y="180" width="20" height="8" rx="3" fill="rgba(255,255,255,0.25)"/>
    <rect x="326" y="180" width="20" height="8" rx="3" fill="rgba(255,255,255,0.25)"/>
    <rect x="386" y="180" width="20" height="8" rx="3" fill="rgba(255,255,255,0.25)"/>

    <rect x="26" y="257" width="20" height="8" rx="3" fill="rgba(255,255,255,0.25)"/>
    <rect x="206" y="257" width="20" height="8" rx="3" fill="rgba(255,255,255,0.25)"/>
    <rect x="326" y="257" width="20" height="8" rx="3" fill="rgba(255,255,255,0.25)"/>
  </g>

  <!-- Title and tagline -->
  <g transform="translate(580, 200)">
    <text font-family="system-ui, -apple-system, sans-serif" font-size="72" font-weight="700" fill="#00f0ff" filter="url(#textGlow)">
      NeoMatrix
    </text>
    <text y="80" font-family="system-ui, -apple-system, sans-serif" font-size="48" font-weight="500" fill="#e8e8f0">
      Frame Creator
    </text>
    <text y="160" font-family="system-ui, -apple-system, sans-serif" font-size="24" fill="#a0a0b0">
      Design LED matrix animations for WS2812 NeoPixel
    </text>
    <text y="200" font-family="system-ui, -apple-system, sans-serif" font-size="24" fill="#a0a0b0">
      displays. Export to Rust code or animated GIF.
    </text>
  </g>

  <!-- Feature pills -->
  <g transform="translate(580, 440)">
    <rect x="0" y="0" width="140" height="40" rx="20" fill="#1a1a2e" stroke="#00f0ff" stroke-width="1"/>
    <text x="70" y="26" font-family="system-ui, sans-serif" font-size="16" fill="#00f0ff" text-anchor="middle">Multi-Color</text>

    <rect x="160" y="0" width="140" height="40" rx="20" fill="#1a1a2e" stroke="#ff00aa" stroke-width="1"/>
    <text x="230" y="26" font-family="system-ui, sans-serif" font-size="16" fill="#ff00aa" text-anchor="middle">GIF Export</text>

    <rect x="320" y="0" width="140" height="40" rx="20" fill="#1a1a2e" stroke="#00ff6a" stroke-width="1"/>
    <text x="390" y="26" font-family="system-ui, sans-serif" font-size="16" fill="#00ff6a" text-anchor="middle">Rust Code</text>
  </g>

  <!-- Logo icon in corner -->
  <g transform="translate(1080, 520)">
    <rect width="80" height="80" rx="12" fill="#14141f" stroke="#2a2a3e" stroke-width="1"/>
    <rect x="12" y="12" width="16" height="16" rx="3" fill="#1a1a24"/>
    <rect x="32" y="12" width="16" height="16" rx="3" fill="url(#cyan)" filter="url(#glow)"/>
    <rect x="52" y="12" width="16" height="16" rx="3" fill="#1a1a24"/>
    <rect x="12" y="32" width="16" height="16" rx="3" fill="url(#magenta)" filter="url(#glow)"/>
    <rect x="32" y="32" width="16" height="16" rx="3" fill="url(#cyan)" filter="url(#glow)"/>
    <rect x="52" y="32" width="16" height="16" rx="3" fill="url(#magenta)" filter="url(#glow)"/>
    <rect x="12" y="52" width="16" height="16" rx="3" fill="#1a1a24"/>
    <rect x="32" y="52" width="16" height="16" rx="3" fill="url(#cyan)" filter="url(#glow)"/>
    <rect x="52" y="52" width="16" height="16" rx="3" fill="#1a1a24"/>
  </g>
</svg>
