<svg xmlns="http://www.w3.org/2000/svg" viewBox="0 0 1200 630">
  <defs>
    <linearGradient id="bg" x1="0%" y1="0%" x2="100%" y2="100%">
      <stop offset="0%" style="stop-color:#0f0f18"/>
      <stop offset="100%" style="stop-color:#0a0a0f"/>
    </linearGradient>
    <linearGradient id="cyan" x1="0%" y1="0%" x2="100%" y2="100%">
      <stop offset="0%" style="stop-color:#00f0ff"/>
      <stop offset="100%" style="stop-color:#00c8d7"/>
    </linearGradient>
    <linearGradient id="magenta" x1="0%" y1="0%" x2="100%" y2="100%">
      <stop offset="0%" style="stop-color:#ff00aa"/>
      <stop offset="100%" style="stop-color:#cc0088"/>
    </linearGradient>
    <linearGradient id="green" x1="0%" y1="0%" x2="100%" y2="100%">
      <stop offset="0%" style="stop-color:#00ff6a"/>
      <stop offset="100%" style="stop-color:#00cc55"/>
    </linearGradient>
    <filter id="glow" x="-100%" y="-100%" width="300%" height="300%">
      <feGaussianBlur stdDeviation="8" result="blur"/>
      <feMerge>
        <feMergeNode in="blur"/>
        <feMergeNode in="SourceGraphic"/>
      </feMerge>
    </filter>
    <filter id="textGlow" x="-50%" y="-50%" width="200%" height="200%">
      <feGaussianBlur stdDeviation="4" result="blur"/>
      <feMerge>
        <feMergeNode in="blur"/>
        <feMergeNode in="SourceGraphic"/>
      </feMerge>
    </filter>
  </defs>

  <!-- Background -->
  <rect width="1200" height="630" fill="url(#bg)"/>

  <!-- Subtle grid pattern -->
  <g opacity="0.1">
    <pattern id="grid" width="60" height="60" patternUnits="userSpaceOnUse">
      <rect width="60" height="60" fill="none" stroke="#00f0ff" stroke-width="0.5"/>
    </pattern>
    <rect width="1200" height="630" fill="url(#grid)"/>
  </g>

  <!-- LED Matrix Display - 8x4 grid on the left -->
  <g transform="translate(80, 165)">
    <!-- Matrix container -->
    <rect x="-20" y="-20" width="440" height="320" rx="16" fill="#14141f" stroke="#2a2a3e" stroke-width="2"/>

    <!-- LED cells -->
    <!-- Row 1: N -->
    <rect x="0" y="0" width="45" height="45" rx="8" fill="url(#cyan)" filter="url(#glow)"/>
    <rect x="60" y="0" width="45" height="45" rx="8" fill="#1a1a24"/>
    <rect x="120" y="0" width="45" height="45" rx="8" fill="#1a1a24"/>
    <rect x="180" y="0" width="45" height="45" rx="8" fill="url(#cyan)" filter="url(#glow)"/>
    <rect x="240" y="0" width="45" height="45" rx="8" fill="#1a1a24"/>
    <rect x="300" y="0" width="45" height="45" rx="8" fill="url(#magenta)" filter="url(#glow)"/>
    <rect x="360" y="0" width="45" height="45" rx="8" fill="url(#magenta)" filter="url(#glow)"/>

    <!-- Row 2 -->
    <rect x="0" y="70" width="45" height="45" rx="8" fill="url(#cyan)" filter="url(#glow)"/>
    <rect x="60" y="70" width="45" height="45" rx="8" fill="url(#cyan)" filter="url(#glow)"/>
    <rect x="120" y="70" width="45" height="45" rx="8" fill="#1a1a24"/>
    <rect x="180" y="70" width="45" height="45" rx="8" fill="url(#cyan)" filter="url(#glow)"/>
    <rect x="240" y="70" width="45" height="45" rx="8" fill="#1a1a24"/>
    <rect x="300" y="70" width="45" height="45" rx="8" fill="url(#magenta)" filter="url(#glow)"/>
    <rect x="360" y="70" width="45" height="45" rx="8" fill="#1a1a24"/>

    <!-- Row 3 -->
    <rect x="0" y="140" width="45" height="45" rx="8" fill="url(#cyan)" filter="url(#glow)"/>
    <rect x="60" y="140" width="45" height="45" rx="8" fill="#1a1a24"/>
    <rect x="120" y="140" width="45" height="45" rx="8" fill="url(#cyan)" filter="url(#glow)"/>
    <rect x="180" y="140" width="45" height="45" rx="8" fill="url(#cyan)" filter="url(#glow)"/>
    <rect x="240" y="140" width="45" height="45" rx="8" fill="#1a1a24"/>
    <rect x="300" y="140" width="45" height="45" rx="8" fill="url(#magenta)" filter="url(#glow)"/>
    <rect x="360" y="140" width="45" height="45" rx="8" fill="url(#magenta)" filter="url(#glow)"/>

    <!-- Row 4 -->
    <rect x="0" y="210" width="45" height="45" rx="8" fill="url(#cyan)" filter="url(#glow)"/>
    <rect x="60" y="210" width="45" height="45" rx="8" fill="#1a1a24"/>
    <rect x="120" y="210" width="45" height="45" rx="8" fill="#1a1a24"/>
    <rect x="180" y="210" width="45" height="45" rx="8" fill="url(#cyan)" filter="url(#glow)"/>
    <rect x="240" y="210" width="45" height="45" rx="8" fill="#1a1a24"/>
    <rect x="300" y="210" width="45" height="45" rx="8" fill="url(#magenta)" filter="url(#glow)"/>
    <rect x="360" y="210" width="45" height="45" rx="8" fill="#1a1a24"/>
  </g>

  <!-- Title and tagline -->
  <g transform="translate(580, 200)">
    <text font-family="system-ui, -apple-system, sans-serif" font-size="72" font-weight="700" fill="#00f0ff" filter="url(#textGlow)">
      NeoMatrix
    </text>
    <text y="80" font-family="system-ui, -apple-system, sans-serif" font-size="48" font-weight="500" fill="#e8e8f0">
      Frame Creator
    </text>
    <text y="160" font-family="system-ui, -apple-system, sans-serif" font-size="24" fill="#a0a0b0">
      Design LED matrix animations for WS2812 NeoPixel
    </text>
    <text y="200" font-family="system-ui, -apple-system, sans-serif" font-size="24" fill="#a0a0b0">
      displays. Export to Rust code or animated GIF.
    </text>
  </g>

  <!-- Feature pills -->
  <g transform="translate(580, 440)">
    <rect x="0" y="0" width="140" height="40" rx="20" fill="#1a1a2e" stroke="#00f0ff" stroke-width="1"/>
    <text x="70" y="26" font-family="system-ui, sans-serif" font-size="16" fill="#00f0ff" text-anchor="middle">Multi-Color</text>

    <rect x="160" y="0" width="140" height="40" rx="20" fill="#1a1a2e" stroke="#ff00aa" stroke-width="1"/>
    <text x="230" y="26" font-family="system-ui, sans-serif" font-size="16" fill="#ff00aa" text-anchor="middle">GIF Export</text>

    <rect x="320" y="0" width="140" height="40" rx="20" fill="#1a1a2e" stroke="#00ff6a" stroke-width="1"/>
    <text x="390" y="26" font-family="system-ui, sans-serif" font-size="16" fill="#00ff6a" text-anchor="middle">Rust Code</text>
  </g>

  <!-- Logo icon in corner -->
  <g transform="translate(1080, 520)">
    <rect width="80" height="80" rx="12" fill="#14141f" stroke="#2a2a3e" stroke-width="1"/>
    <rect x="12" y="12" width="16" height="16" rx="3" fill="#1a1a24"/>
    <rect x="32" y="12" width="16" height="16" rx="3" fill="url(#cyan)" filter="url(#glow)"/>
    <rect x="52" y="12" width="16" height="16" rx="3" fill="#1a1a24"/>
    <rect x="12" y="32" width="16" height="16" rx="3" fill="url(#magenta)" filter="url(#glow)"/>
    <rect x="32" y="32" width="16" height="16" rx="3" fill="url(#cyan)" filter="url(#glow)"/>
    <rect x="52" y="32" width="16" height="16" rx="3" fill="url(#magenta)" filter="url(#glow)"/>
    <rect x="12" y="52" width="16" height="16" rx="3" fill="#1a1a24"/>
    <rect x="32" y="52" width="16" height="16" rx="3" fill="url(#cyan)" filter="url(#glow)"/>
    <rect x="52" y="52" width="16" height="16" rx="3" fill="#1a1a24"/>
  </g>
</svg>
